<svg width="461" height="50" viewBox="0 0 461 50" fill="none" xmlns="http://www.w3.org/2000/svg">
<g filter="url(#filter0_d_1_2)">
<path d="M14.925 34.945C10.605 34.945 7.86 34.12 6.69 32.47C5.52 30.79 4.905 29.92 4.845 29.86C4.725 29.71 4.665 29.56 4.665 29.41C4.665 29.32 4.785 29.125 5.025 28.825C5.415 28.285 5.985 27.64 6.735 26.89C6.855 26.77 6.975 26.71 7.095 26.71C7.245 26.71 7.41 26.83 7.59 27.07C7.77 27.28 7.92 27.445 8.04 27.565C9.81 29.335 11.82 30.22 14.07 30.22C15.21 30.22 16.2 30.01 17.04 29.59C17.88 29.14 18.3 28.315 18.3 27.115C18.3 25.045 16.665 22.84 13.395 20.5C12.855 20.14 12.345 19.84 11.865 19.6C10.605 18.91 9.525 18.235 8.625 17.575C7.725 16.915 6.93 16.045 6.24 14.965C5.55 13.885 5.205 12.625 5.205 11.185C5.205 9.385 5.76 7.765 6.87 6.325C8.01 4.885 9.36 3.76 10.92 2.95C12.51 2.14 13.89 1.735 15.06 1.735C17.91 1.735 20.25 2.305 22.08 3.445C23.94 4.555 25.38 5.62 26.4 6.64C26.52 6.76 26.58 6.895 26.58 7.045C26.58 7.135 26.535 7.255 26.445 7.405C26.385 7.525 26.34 7.615 26.31 7.675C26.16 7.885 25.905 8.26 25.545 8.8C25.215 9.31 24.945 9.685 24.735 9.925C24.645 10.045 24.54 10.18 24.42 10.33C24.33 10.45 24.24 10.54 24.15 10.6C24.09 10.66 23.985 10.69 23.835 10.69C23.775 10.69 23.625 10.6 23.385 10.42C23.175 10.21 22.965 10.03 22.755 9.88C21.555 8.83 20.385 7.93 19.245 7.18C18.105 6.43 17.01 6.055 15.96 6.055C15.12 6.055 14.43 6.25 13.89 6.64C13.35 7 13.08 7.84 13.08 9.16C13.08 10.45 13.56 11.455 14.52 12.175C15.48 12.895 16.755 13.585 18.345 14.245C18.495 14.305 19.365 14.68 20.955 15.37C22.575 16.06 24 17.38 25.23 19.33C26.49 21.28 27.12 23.605 27.12 26.305C27.12 29.185 26.04 31.345 23.88 32.785C21.72 34.225 18.735 34.945 14.925 34.945ZM36.9827 34.18C35.5427 34.18 34.4627 34.015 33.7427 33.685C33.0527 33.325 32.5877 32.83 32.3477 32.2C32.1377 31.54 32.0327 30.67 32.0327 29.59L32.0777 26.71C32.1077 26.2 32.1227 25.345 32.1227 24.145L32.0777 18.88C32.0477 18.43 32.0327 17.95 32.0327 17.44C32.0027 16.87 31.9877 16.24 31.9877 15.55C32.0177 14.83 32.0327 14.17 32.0327 13.57V11.14V9.745H30.3227C30.1727 9.745 30.0677 9.715 30.0077 9.655C29.9477 9.595 29.9177 9.55 29.9177 9.52C29.8877 9.28 29.8727 8.995 29.8727 8.665C29.8727 8.425 29.9027 8.155 29.9627 7.855H32.0327L32.0777 7.54L32.1227 5.83V3.895C32.0927 3.175 32.1377 2.695 32.2577 2.455C32.4077 2.185 32.6177 2.05 32.8877 2.05C33.0377 2.05 33.1577 2.065 33.2477 2.095C33.4877 2.125 33.7427 2.14 34.0127 2.14C34.3127 2.11 34.5827 2.095 34.8227 2.095H35.9477C36.7277 2.095 37.2677 2.11 37.5677 2.14C37.8977 2.17 38.1227 2.245 38.2427 2.365C38.3927 2.485 38.4677 2.665 38.4677 2.905C38.4677 2.995 38.4377 3.34 38.3777 3.94C38.3477 4.12 38.2877 4.54 38.1977 5.2C38.1377 5.83 38.0777 6.685 38.0177 7.765L41.4377 7.81H41.6627C42.0827 7.81 42.3077 7.9 42.3377 8.08L42.4277 8.935C42.4577 9.145 42.4727 9.205 42.4727 9.115C42.5027 9.025 42.5177 9.055 42.5177 9.205C42.5177 9.325 42.4727 9.43 42.3827 9.52C42.3227 9.61 42.2477 9.655 42.1577 9.655L41.1227 9.7C40.1327 9.79 39.0977 9.835 38.0177 9.835V10.015V11.41V14.38C38.0477 15.13 38.0627 16.18 38.0627 17.53L38.0177 21.49L38.1077 23.29C38.1977 25.45 38.2427 26.545 38.2427 26.575V27.475C38.2427 28.075 38.3177 28.51 38.4677 28.78C38.6477 29.02 38.9027 29.14 39.2327 29.14C39.9827 29.14 40.5077 29.125 40.8077 29.095C41.1077 29.035 41.3627 29.005 41.5727 29.005C41.6927 29.005 41.7977 29.14 41.8877 29.41C41.9777 29.68 42.0377 29.89 42.0677 30.04L42.4277 31.345C42.5477 31.795 42.6977 32.17 42.8777 32.47C42.9077 32.5 42.9227 32.545 42.9227 32.605C42.9227 32.725 42.8477 32.86 42.6977 33.01C41.8877 33.52 41.0777 33.85 40.2677 34C39.4577 34.12 38.3627 34.18 36.9827 34.18ZM52.6399 34.495C50.4499 34.495 48.6949 34.06 47.3749 33.19C46.0549 32.32 45.3949 30.775 45.3949 28.555C45.5449 27.115 46.6099 26.05 48.5899 25.36C50.5699 24.67 52.7899 24.325 55.2499 24.325C56.0299 24.325 56.9599 24.265 58.0399 24.145C59.1199 24.025 60.1099 23.965 61.0099 23.965C60.8899 20.725 60.6799 18.19 60.3799 16.36C60.1099 14.5 59.6299 13.105 58.9399 12.175C58.2799 11.245 57.3349 10.78 56.1049 10.78C55.2049 10.78 54.3499 10.99 53.5399 11.41C52.7299 11.83 51.7249 12.49 50.5249 13.39C49.5349 14.11 49.0399 14.47 49.0399 14.47C49.0099 14.47 48.9049 14.53 48.7249 14.65C48.5749 14.74 48.4249 14.77 48.2749 14.74C48.0049 14.68 47.8699 14.545 47.8699 14.335C47.7499 14.155 47.5999 13.75 47.4199 13.12C47.2699 12.49 47.1949 12.04 47.1949 11.77C47.1949 11.59 47.3749 11.38 47.7349 11.14C49.2649 10 50.5549 9.16 51.6049 8.62C52.6849 8.05 53.5999 7.69 54.3499 7.54C55.1299 7.39 56.0299 7.315 57.0499 7.315C60.0499 7.315 62.0599 8.29 63.0799 10.24C64.1299 12.16 64.6549 14.725 64.6549 17.935C64.6549 18.775 64.6249 19.915 64.5649 21.355C64.5649 22.225 64.5049 23.5 64.3849 25.18L64.3399 26.26L64.3849 28.915C64.4449 30.115 64.4749 31.03 64.4749 31.66L64.4299 33.01C64.3699 33.7 64.0999 34.045 63.6199 34.045L63.2599 34H61.4149C61.2949 34 61.1749 33.955 61.0549 33.865C60.9649 33.745 60.9199 33.61 60.9199 33.46V33.1C59.1199 33.61 57.6799 33.97 56.5999 34.18C55.5199 34.39 54.1999 34.495 52.6399 34.495ZM52.6849 31.93C55.8949 31.93 58.6399 31.39 60.9199 30.31L61.0549 26.125C59.6449 26.005 58.4299 25.945 57.4099 25.945L54.7549 25.99C53.3149 25.99 52.0249 26.275 50.8849 26.845C49.7449 27.385 49.1299 28.15 49.0399 29.14C49.0399 30.22 49.2949 30.955 49.8049 31.345C50.3149 31.735 51.2749 31.93 52.6849 31.93ZM77.1322 34.135C77.1022 34.135 76.8622 34.105 76.4122 34.045C75.9922 33.985 75.4222 33.955 74.7022 33.955L71.2372 34C70.7872 34 70.5622 33.82 70.5622 33.46C70.5622 33.34 70.5622 32.935 70.5622 32.245C70.5922 31.555 70.6072 30.37 70.6072 28.69C70.6072 26.98 70.6522 25.33 70.7422 23.74C70.8622 22.15 70.9222 21.265 70.9222 21.085L71.1922 12.94L71.2372 8.305C71.2372 7.975 71.3122 7.795 71.4622 7.765C71.6122 7.765 71.9422 7.78 72.4522 7.81C72.9622 7.84 73.6072 7.855 74.3872 7.855C74.9872 7.855 75.5722 7.84 76.1422 7.81C76.7422 7.78 77.1022 7.765 77.2222 7.765C77.3122 7.765 77.3872 7.825 77.4472 7.945C77.5372 8.035 77.5822 8.11 77.5822 8.17L77.6722 9.43C78.6922 8.77 79.8772 8.215 81.2272 7.765C82.6072 7.285 83.6572 7.045 84.3772 7.045C84.5572 7.045 84.6772 7.06 84.7372 7.09C84.7972 7.12 84.8572 7.255 84.9172 7.495C85.0072 7.705 85.0822 7.885 85.1422 8.035C85.4422 8.785 85.6372 9.685 85.7272 10.735C85.7572 11.215 85.8322 11.77 85.9522 12.4C86.0122 12.67 86.0422 13 86.0422 13.39C86.0422 13.63 86.0272 13.765 85.9972 13.795C85.7572 14.155 85.3972 14.41 84.9172 14.56C84.4372 14.68 83.7322 14.8 82.8022 14.92C81.6322 15.04 80.6272 15.22 79.7872 15.46L77.8072 15.91L77.8522 17.71C77.8522 18.7 77.8672 19.21 77.8972 19.24L77.9422 23.065C78.0022 25.045 78.0322 27.745 78.0322 31.165C78.0322 32.485 77.9722 33.37 77.8522 33.82C77.8522 34.03 77.6122 34.135 77.1322 34.135ZM90.229 34C89.779 34 89.554 33.82 89.554 33.46V24.865V21.085L89.869 8.305C89.869 7.975 89.944 7.795 90.094 7.765C90.214 7.705 90.559 7.675 91.129 7.675C92.269 7.675 92.899 7.705 93.019 7.765C93.109 7.765 93.184 7.825 93.244 7.945C93.334 8.035 93.379 8.11 93.379 8.17L93.334 9.745L95.314 8.935C98.284 7.645 99.994 7 100.444 7H100.489C100.699 7 100.864 7.27 100.984 7.81C100.984 8.47 100.999 8.98 101.029 9.34C101.029 9.67 101.059 9.985 101.119 10.285L101.164 11.275V11.365C101.164 11.485 101.119 11.605 101.029 11.725C100.939 11.845 100.864 11.92 100.804 11.95C99.844 12.19 98.809 12.385 97.699 12.535C96.619 12.655 95.989 12.73 95.809 12.76L93.244 13.12V19.465V21.445L93.334 23.785C93.334 24.655 93.319 25.39 93.289 25.99C93.199 26.98 93.154 28.12 93.154 29.41V30.94C93.154 32.44 93.094 33.37 92.974 33.73C92.974 33.94 92.734 34.045 92.254 34.045L90.229 34ZM113.093 41.245C112.643 41.275 112.013 41.245 111.203 41.155C110.603 41.095 110.018 41.065 109.448 41.065C109.328 41.065 108.953 41.08 108.323 41.11C107.723 41.17 107.228 41.2 106.838 41.2C106.508 41.2 106.328 41.185 106.298 41.155C106.238 41.125 106.208 41.035 106.208 40.885C106.208 40.705 106.238 40.525 106.298 40.345C106.388 40.165 106.433 40.06 106.433 40.03L107.062 38.275C107.123 38.155 107.183 37.99 107.243 37.78C107.303 37.57 107.393 37.315 107.513 37.015L108.728 32.605L105.218 20.905C104.738 19.105 104.168 16.915 103.508 14.335C102.878 11.725 102.398 9.73 102.068 8.35C102.008 8.17 101.978 8.065 101.978 8.035C101.978 7.855 102.128 7.765 102.428 7.765C102.608 7.765 102.803 7.78 103.013 7.81C103.253 7.84 103.493 7.855 103.733 7.855L105.623 7.81L108.008 7.72C108.488 7.69 108.803 7.75 108.953 7.9C109.103 8.05 109.238 8.335 109.358 8.755C109.358 8.575 109.748 10.315 110.528 13.975L111.608 20.23L112.193 23.65H112.463L112.958 20.77C113.018 20.23 113.183 19.45 113.453 18.43C113.753 17.41 113.933 16.78 113.993 16.54C114.173 15.76 114.428 14.845 114.758 13.795C114.848 13.435 115.043 12.67 115.343 11.5C115.673 10.33 115.868 9.46 115.928 8.89C115.988 8.32 116.093 7.975 116.243 7.855C116.423 7.705 116.633 7.645 116.873 7.675C117.113 7.675 117.278 7.675 117.368 7.675C119.978 7.675 121.628 7.705 122.318 7.765C122.798 7.825 123.038 7.96 123.038 8.17C123.038 8.23 123.008 8.41 122.948 8.71C122.858 8.89 122.723 9.19 122.543 9.61C122.393 10.03 122.273 10.375 122.183 10.645C121.883 11.545 121.733 11.995 121.733 11.995C120.683 15.985 119.798 18.91 119.078 20.77C118.778 21.58 118.448 22.75 118.088 24.28C117.728 25.78 117.503 26.74 117.413 27.16C117.233 28.06 117.023 28.93 116.783 29.77C116.513 30.91 116.168 32.245 115.748 33.775L114.758 37.555C114.668 38.035 114.488 38.68 114.218 39.49C113.978 40.3 113.843 40.75 113.813 40.84C113.783 41.11 113.543 41.245 113.093 41.245ZM145.315 34.765C143.485 34.765 141.97 34.54 140.77 34.09C139.57 33.64 138.835 33.31 138.565 33.1C138.325 32.86 137.77 32.305 136.9 31.435C136.72 31.255 136.675 31.135 136.765 31.075C136.825 30.925 136.93 30.76 137.08 30.58L137.665 29.86C137.815 29.65 138.085 29.305 138.475 28.825C138.565 28.735 138.67 28.69 138.79 28.69C138.91 28.69 139.075 28.765 139.285 28.915C139.495 29.035 139.675 29.17 139.825 29.32C139.855 29.35 140.02 29.5 140.32 29.77C140.65 30.01 141.115 30.235 141.715 30.445C142.315 30.625 142.975 30.715 143.695 30.715C144.655 30.715 145.48 30.535 146.17 30.175C146.86 29.785 147.205 28.99 147.205 27.79C147.205 26.83 146.995 26.02 146.575 25.36C146.185 24.7 145.69 24.16 145.09 23.74C144.49 23.29 143.665 22.78 142.615 22.21C141.445 21.55 140.5 20.965 139.78 20.455C139.06 19.915 138.445 19.195 137.935 18.295C137.455 17.395 137.215 16.285 137.215 14.965C137.215 13.405 137.635 12.025 138.475 10.825C139.315 9.625 140.455 8.71 141.895 8.08C143.365 7.42 144.985 7.09 146.755 7.09C149.575 7.09 151.705 7.69 153.145 8.89C154.615 10.06 155.38 10.66 155.44 10.69C155.56 10.78 155.62 10.885 155.62 11.005C155.62 11.095 155.59 11.185 155.53 11.275C155.47 11.365 155.425 11.455 155.395 11.545C155.275 11.725 155.065 12.04 154.765 12.49C154.495 12.94 154.27 13.255 154.09 13.435C154.03 13.525 153.955 13.645 153.865 13.795C153.775 13.915 153.685 13.99 153.595 14.02C153.535 14.05 153.445 14.065 153.325 14.065C153.205 14.005 152.785 13.69 152.065 13.12C151.345 12.52 150.535 11.965 149.635 11.455C148.765 10.945 148.015 10.69 147.385 10.69C146.725 10.69 146.26 10.915 145.99 11.365C145.72 11.785 145.585 12.505 145.585 13.525C145.585 14.275 145.765 14.905 146.125 15.415C146.485 15.925 146.83 16.285 147.16 16.495C147.49 16.705 148.12 17.05 149.05 17.53C150.16 17.98 151.12 18.445 151.93 18.925C152.77 19.405 153.565 20.245 154.315 21.445C155.095 22.645 155.485 24.235 155.485 26.215C155.485 31.915 152.095 34.765 145.315 34.765ZM159.906 34.09C159.696 34.09 159.576 34.045 159.546 33.955C159.516 33.835 159.501 33.595 159.501 33.235L159.456 24.145V20.635C159.456 17.695 159.441 15.955 159.411 15.415C159.381 15.115 159.366 14.65 159.366 14.02L159.411 3.85L159.456 0.924999C159.456 0.714998 159.576 0.609998 159.816 0.609998C159.966 0.609998 160.101 0.624998 160.221 0.654997C160.371 0.684999 160.506 0.7 160.626 0.7L164.856 0.744999C165.096 0.744999 165.246 0.789998 165.306 0.879997C165.396 0.969998 165.441 1.105 165.441 1.285C165.441 1.375 165.441 1.555 165.441 1.825C165.471 2.065 165.486 2.485 165.486 3.085L165.306 8.305C165.156 11.215 165.081 13.21 165.081 14.29V16.72C165.081 17.38 165.096 17.905 165.126 18.295L166.026 17.17L167.376 15.37C167.646 15.01 168.111 14.5 168.771 13.84C169.851 12.64 170.511 11.875 170.751 11.545C170.871 11.395 171.006 11.215 171.156 11.005C171.336 10.795 171.516 10.57 171.696 10.33C172.656 9.16 173.181 8.455 173.271 8.215C173.331 7.975 173.436 7.84 173.586 7.81C173.766 7.75 173.931 7.72 174.081 7.72C174.231 7.72 174.321 7.72 174.351 7.72C174.591 7.72 174.846 7.705 175.116 7.675C175.416 7.645 175.686 7.615 175.926 7.585H176.061C176.511 7.585 176.736 7.675 176.736 7.855C176.736 7.975 176.601 8.14 176.331 8.35L172.371 13.165C172.131 13.555 171.546 14.32 170.616 15.46C169.686 16.6 168.981 17.455 168.501 18.025C168.171 18.415 167.796 18.895 167.376 19.465C166.986 20.035 166.791 20.365 166.791 20.455C166.791 20.575 166.911 20.755 167.151 20.995C167.391 21.205 167.586 21.4 167.736 21.58L168.456 22.435C170.316 24.685 171.396 25.96 171.696 26.26L172.371 27.07C172.491 27.19 172.776 27.55 173.226 28.15C173.676 28.72 174.141 29.215 174.621 29.635C175.311 30.265 176.031 31.06 176.781 32.02C177.531 32.98 177.951 33.505 178.041 33.595C178.101 33.595 178.131 33.64 178.131 33.73C178.131 33.85 178.041 33.94 177.861 34C177.711 34.03 177.546 34.03 177.366 34L174.126 34.09H173.901C173.361 34.09 172.956 33.955 172.686 33.685L171.201 32.155C171.021 31.945 170.766 31.63 170.436 31.21C170.136 30.76 169.776 30.325 169.356 29.905C169.116 29.665 168.771 29.245 168.321 28.645C168.111 28.405 167.871 28.135 167.601 27.835C167.361 27.505 167.106 27.19 166.836 26.89L165.216 25.27V29.995L165.306 31.885L165.396 33.55C165.396 33.79 165.336 33.94 165.216 34C165.126 34.06 165.021 34.09 164.901 34.09C164.811 34.09 164.751 34.09 164.721 34.09C164.481 34.09 164.181 34.06 163.821 34C163.461 33.97 163.101 33.955 162.741 33.955L161.076 34.045L159.906 34.09ZM180.918 34.36C180.678 34.36 180.528 34.33 180.468 34.27C180.408 34.24 180.378 34.15 180.378 34C180.378 33.91 180.378 33.775 180.378 33.595C180.408 33.385 180.423 33.115 180.423 32.785L180.468 27.88L180.558 20.05C180.558 19.21 180.618 17.41 180.738 14.65C180.858 11.56 180.903 9.865 180.873 9.565L180.828 8.8C180.828 8.47 180.873 8.23 180.963 8.08C181.053 7.9 181.218 7.81 181.458 7.81L183.348 7.855C183.618 7.855 183.753 8.02 183.753 8.35C183.753 8.5 183.738 8.65 183.708 8.8C183.678 8.95 183.663 9.1 183.663 9.25C183.603 9.88 183.543 11.26 183.483 13.39C183.483 14.08 183.423 15.835 183.303 18.655C183.273 19.585 183.243 20.5 183.213 21.4C183.183 22.27 183.168 23.035 183.168 23.695C183.168 25.135 183.183 26.965 183.213 29.185C183.273 31.375 183.333 32.68 183.393 33.1C183.423 33.22 183.438 33.385 183.438 33.595C183.438 33.805 183.408 33.94 183.348 34C183.318 34.09 183.213 34.15 183.033 34.18C182.793 34.3 182.403 34.36 181.863 34.36C181.353 34.36 181.038 34.36 180.918 34.36ZM182.403 6.145C181.773 6.145 181.188 5.905 180.648 5.425C180.138 4.945 179.883 4.345 179.883 3.625C179.883 2.995 180.108 2.44 180.558 1.96C181.038 1.45 181.593 1.195 182.223 1.195C182.973 1.195 183.648 1.39 184.248 1.78C184.848 2.17 185.148 2.71 185.148 3.4C185.148 4.24 184.848 4.915 184.248 5.425C183.648 5.905 183.033 6.145 182.403 6.145ZM199.872 34.495C195.582 34.495 192.642 33.205 191.052 30.625C189.462 28.045 188.667 24.58 188.667 20.23C188.667 17.98 189.132 15.85 190.062 13.84C191.022 11.8 192.312 10.165 193.932 8.935C195.582 7.705 197.397 7.09 199.377 7.09C201.777 7.09 203.712 7.9 205.182 9.52C206.652 11.14 207.687 13.195 208.287 15.685C208.917 18.145 209.232 20.74 209.232 23.47C209.262 23.68 209.187 23.815 209.007 23.875C208.827 23.935 208.467 23.965 207.927 23.965C206.967 23.905 206.187 23.875 205.587 23.875C204.597 23.875 203.292 23.905 201.672 23.965L200.502 24.01H198.972C196.842 24.01 195.462 23.995 194.832 23.965C193.392 23.965 192.342 23.95 191.682 23.92C191.862 26.62 192.597 28.66 193.887 30.04C195.207 31.39 197.142 32.065 199.692 32.065C201.042 32.065 202.377 31.705 203.697 30.985C205.017 30.235 205.962 29.305 206.532 28.195C206.562 28.165 206.607 28.15 206.667 28.15C206.817 28.15 206.997 28.255 207.207 28.465C207.447 28.645 207.627 28.78 207.747 28.87C208.077 29.08 208.317 29.245 208.467 29.365C208.617 29.485 208.707 29.65 208.737 29.86C207.897 31.09 206.652 32.17 205.002 33.1C203.382 34.03 201.672 34.495 199.872 34.495ZM201.042 21.175C201.852 21.175 202.647 21.16 203.427 21.13C204.237 21.07 205.227 20.98 206.397 20.86C206.067 17.8 205.362 15.16 204.282 12.94C203.232 10.72 201.867 9.61 200.187 9.61C198.747 9.61 197.397 10.12 196.137 11.14C194.877 12.13 193.842 13.495 193.032 15.235C192.222 16.975 191.757 18.925 191.637 21.085C191.847 21.085 192.132 21.1 192.492 21.13C192.852 21.13 193.362 21.115 194.022 21.085L201.042 21.175ZM221.296 34.765C219.466 34.765 217.951 34.54 216.751 34.09C215.551 33.64 214.816 33.31 214.546 33.1C214.306 32.86 213.751 32.305 212.881 31.435C212.701 31.255 212.656 31.135 212.746 31.075C212.806 30.925 212.911 30.76 213.061 30.58L213.646 29.86C213.796 29.65 214.066 29.305 214.456 28.825C214.546 28.735 214.651 28.69 214.771 28.69C214.891 28.69 215.056 28.765 215.266 28.915C215.476 29.035 215.656 29.17 215.806 29.32C215.836 29.35 216.001 29.5 216.301 29.77C216.631 30.01 217.096 30.235 217.696 30.445C218.296 30.625 218.956 30.715 219.676 30.715C220.636 30.715 221.461 30.535 222.151 30.175C222.841 29.785 223.186 28.99 223.186 27.79C223.186 26.83 222.976 26.02 222.556 25.36C222.166 24.7 221.671 24.16 221.071 23.74C220.471 23.29 219.646 22.78 218.596 22.21C217.426 21.55 216.481 20.965 215.761 20.455C215.041 19.915 214.426 19.195 213.916 18.295C213.436 17.395 213.196 16.285 213.196 14.965C213.196 13.405 213.616 12.025 214.456 10.825C215.296 9.625 216.436 8.71 217.876 8.08C219.346 7.42 220.966 7.09 222.736 7.09C225.556 7.09 227.686 7.69 229.126 8.89C230.596 10.06 231.361 10.66 231.421 10.69C231.541 10.78 231.601 10.885 231.601 11.005C231.601 11.095 231.571 11.185 231.511 11.275C231.451 11.365 231.406 11.455 231.376 11.545C231.256 11.725 231.046 12.04 230.746 12.49C230.476 12.94 230.251 13.255 230.071 13.435C230.011 13.525 229.936 13.645 229.846 13.795C229.756 13.915 229.666 13.99 229.576 14.02C229.516 14.05 229.426 14.065 229.306 14.065C229.186 14.005 228.766 13.69 228.046 13.12C227.326 12.52 226.516 11.965 225.616 11.455C224.746 10.945 223.996 10.69 223.366 10.69C222.706 10.69 222.241 10.915 221.971 11.365C221.701 11.785 221.566 12.505 221.566 13.525C221.566 14.275 221.746 14.905 222.106 15.415C222.466 15.925 222.811 16.285 223.141 16.495C223.471 16.705 224.101 17.05 225.031 17.53C226.141 17.98 227.101 18.445 227.911 18.925C228.751 19.405 229.546 20.245 230.296 21.445C231.076 22.645 231.466 24.235 231.466 26.215C231.466 31.915 228.076 34.765 221.296 34.765ZM236.158 38.41C235.468 38.41 234.973 38.38 234.673 38.32C234.403 38.32 234.238 38.26 234.178 38.14C234.118 38.05 234.088 37.93 234.088 37.78C234.118 37.63 234.133 37.51 234.133 37.42L235.213 33.46L235.978 30.715L236.563 29.005C236.623 28.735 236.773 28.525 237.013 28.375C237.253 28.225 237.523 28.15 237.823 28.15H240.118C240.478 28.15 240.658 28.255 240.658 28.465C240.658 28.555 240.613 28.69 240.523 28.87C240.373 29.47 240.238 29.95 240.118 30.31C240.088 30.49 239.983 30.82 239.803 31.3C239.653 31.69 239.473 32.215 239.263 32.875C239.083 33.325 238.843 34.12 238.543 35.26C238.243 36.4 238.093 37.045 238.093 37.195C238.063 37.285 237.973 37.465 237.823 37.735C237.703 38.035 237.568 38.23 237.418 38.32C237.238 38.38 236.818 38.41 236.158 38.41ZM253.5 34C253.23 34 253.155 33.805 253.275 33.415C253.275 33.325 253.29 33.25 253.32 33.19C253.32 33.13 253.335 33.055 253.365 32.965C253.395 32.875 253.44 32.74 253.5 32.56L253.905 30.895C253.965 30.715 254.07 30.4 254.22 29.95C254.37 29.5 254.475 29.08 254.535 28.69C254.685 27.97 254.97 26.875 255.39 25.405L255.75 24.145C256.32 22.285 256.68 20.98 256.83 20.23L257.46 17.845C257.76 16.855 257.94 16.225 258 15.955C258.21 15.055 258.51 13.93 258.9 12.58L259.215 11.32L259.485 10.375C259.785 9.355 260.04 8.62 260.25 8.17C260.31 7.99 260.52 7.375 260.88 6.325C261.27 5.245 261.525 4.39 261.645 3.76C261.855 3.04 262.065 2.5 262.275 2.14C262.515 1.78 262.83 1.6 263.22 1.6C263.37 1.6 263.52 1.735 263.67 2.005C263.82 2.275 263.97 2.605 264.12 2.995C264.27 3.385 264.375 3.67 264.435 3.85C264.675 4.42 265.095 5.845 265.695 8.125L266.055 9.385C266.085 9.625 266.58 11.095 267.54 13.795L268.395 16.27L269.205 18.385C270.045 20.755 270.585 22.195 270.825 22.705C271.875 25.885 272.49 27.805 272.67 28.465C272.88 29.245 273.21 30.22 273.66 31.39C274.14 32.56 274.41 33.22 274.47 33.37C274.56 33.58 274.605 33.73 274.605 33.82C274.605 33.94 274.44 34 274.11 34H271.59C271.47 34 271.365 33.985 271.275 33.955C271.215 33.895 271.155 33.775 271.095 33.595C270.975 33.265 270.81 32.725 270.6 31.975C270.33 31.225 270.15 30.55 270.06 29.95C269.97 29.5 269.82 28.96 269.61 28.33C269.43 27.7 269.265 27.22 269.115 26.89C268.845 26.32 268.605 25.675 268.395 24.955L267.99 23.65C267.84 23.32 267.72 23.125 267.63 23.065C267.57 22.975 267.45 22.93 267.27 22.93C266.64 22.93 266.175 22.945 265.875 22.975L263.94 23.065C263.7 23.095 262.59 23.11 260.61 23.11H257.865H257.775C257.595 23.11 257.46 23.275 257.37 23.605L257.28 24.055L257.1 24.91C257.04 25.09 256.845 25.96 256.515 27.52C256.425 28.03 256.275 28.69 256.065 29.5C256.005 30.1 255.87 30.595 255.66 30.985C255.6 31.075 255.525 31.285 255.435 31.615C255.345 31.945 255.27 32.215 255.21 32.425C255.12 32.665 255.015 33.055 254.895 33.595C254.865 33.625 254.835 33.7 254.805 33.82C254.775 33.91 254.73 33.97 254.67 34C254.61 34 254.52 34 254.4 34H253.5ZM262.095 20.05C262.455 19.99 262.965 19.96 263.625 19.96L266.055 20.005C266.445 20.005 266.64 19.9 266.64 19.69C266.64 19.54 266.535 19.21 266.325 18.7C266.145 18.25 265.875 17.41 265.515 16.18C265.245 15.19 264.975 14.335 264.705 13.615C264.405 12.715 264.075 11.65 263.715 10.42C263.385 9.19 263.19 8.395 263.13 8.035C262.68 6.445 262.38 5.65 262.23 5.65C262.14 5.65 261.99 6.055 261.78 6.865L261.51 7.855C261.3 8.665 261.03 9.685 260.7 10.915C260.37 12.115 260.07 13.135 259.8 13.975C259.62 14.755 259.365 15.745 259.035 16.945C258.735 18.115 258.495 18.925 258.315 19.375C258.255 19.555 258.225 19.66 258.225 19.69C258.225 19.9 258.315 20.035 258.495 20.095C258.705 20.155 258.9 20.185 259.08 20.185C259.29 20.155 259.425 20.14 259.485 20.14L262.095 20.05ZM283.587 34.135C283.557 34.135 283.317 34.105 282.867 34.045C282.447 33.985 281.877 33.955 281.157 33.955L277.692 34C277.242 34 277.017 33.82 277.017 33.46C277.017 33.34 277.017 32.935 277.017 32.245C277.047 31.555 277.062 30.37 277.062 28.69C277.062 26.98 277.107 25.33 277.197 23.74C277.317 22.15 277.377 21.265 277.377 21.085L277.647 12.94L277.692 8.305C277.692 7.975 277.767 7.795 277.917 7.765C278.067 7.765 278.397 7.78 278.907 7.81C279.417 7.84 280.062 7.855 280.842 7.855C281.442 7.855 282.027 7.84 282.597 7.81C283.197 7.78 283.557 7.765 283.677 7.765C283.767 7.765 283.842 7.825 283.902 7.945C283.992 8.035 284.037 8.11 284.037 8.17L284.127 9.43C285.147 8.77 286.332 8.215 287.682 7.765C289.062 7.285 290.112 7.045 290.832 7.045C291.012 7.045 291.132 7.06 291.192 7.09C291.252 7.12 291.312 7.255 291.372 7.495C291.462 7.705 291.537 7.885 291.597 8.035C291.897 8.785 292.092 9.685 292.182 10.735C292.212 11.215 292.287 11.77 292.407 12.4C292.467 12.67 292.497 13 292.497 13.39C292.497 13.63 292.482 13.765 292.452 13.795C292.212 14.155 291.852 14.41 291.372 14.56C290.892 14.68 290.187 14.8 289.257 14.92C288.087 15.04 287.082 15.22 286.242 15.46L284.262 15.91L284.307 17.71C284.307 18.7 284.322 19.21 284.352 19.24L284.397 23.065C284.457 25.045 284.487 27.745 284.487 31.165C284.487 32.485 284.427 33.37 284.307 33.82C284.307 34.03 284.067 34.135 283.587 34.135ZM301.094 34.18C299.654 34.18 298.574 34.015 297.854 33.685C297.164 33.325 296.699 32.83 296.459 32.2C296.249 31.54 296.144 30.67 296.144 29.59L296.189 26.71C296.219 26.2 296.234 25.345 296.234 24.145L296.189 18.88C296.159 18.43 296.144 17.95 296.144 17.44C296.114 16.87 296.099 16.24 296.099 15.55C296.129 14.83 296.144 14.17 296.144 13.57V11.14V9.745H294.434C294.284 9.745 294.179 9.715 294.119 9.655C294.059 9.595 294.029 9.55 294.029 9.52C293.999 9.28 293.984 8.995 293.984 8.665C293.984 8.425 294.014 8.155 294.074 7.855H296.144L296.189 7.54L296.234 5.83V3.895C296.204 3.175 296.249 2.695 296.369 2.455C296.519 2.185 296.729 2.05 296.999 2.05C297.149 2.05 297.269 2.065 297.359 2.095C297.599 2.125 297.854 2.14 298.124 2.14C298.424 2.11 298.694 2.095 298.934 2.095H300.059C300.839 2.095 301.379 2.11 301.679 2.14C302.009 2.17 302.234 2.245 302.354 2.365C302.504 2.485 302.579 2.665 302.579 2.905C302.579 2.995 302.549 3.34 302.489 3.94C302.459 4.12 302.399 4.54 302.309 5.2C302.249 5.83 302.189 6.685 302.129 7.765L305.549 7.81H305.774C306.194 7.81 306.419 7.9 306.449 8.08L306.539 8.935C306.569 9.145 306.584 9.205 306.584 9.115C306.614 9.025 306.629 9.055 306.629 9.205C306.629 9.325 306.584 9.43 306.494 9.52C306.434 9.61 306.359 9.655 306.269 9.655L305.234 9.7C304.244 9.79 303.209 9.835 302.129 9.835V10.015V11.41V14.38C302.159 15.13 302.174 16.18 302.174 17.53L302.129 21.49L302.219 23.29C302.309 25.45 302.354 26.545 302.354 26.575V27.475C302.354 28.075 302.429 28.51 302.579 28.78C302.759 29.02 303.014 29.14 303.344 29.14C304.094 29.14 304.619 29.125 304.919 29.095C305.219 29.035 305.474 29.005 305.684 29.005C305.804 29.005 305.909 29.14 305.999 29.41C306.089 29.68 306.149 29.89 306.179 30.04L306.539 31.345C306.659 31.795 306.809 32.17 306.989 32.47C307.019 32.5 307.034 32.545 307.034 32.605C307.034 32.725 306.959 32.86 306.809 33.01C305.999 33.52 305.189 33.85 304.379 34C303.569 34.12 302.474 34.18 301.094 34.18ZM312.521 34.135C311.981 34.135 311.741 33.52 311.801 32.29V28.555L311.846 26.125C311.846 25.225 311.816 23.875 311.756 22.075L311.711 19.195V17.845H310.811C310.391 17.845 310.106 17.8 309.956 17.71C309.836 17.62 309.776 17.455 309.776 17.215L309.731 16.63C309.731 16.33 309.806 16.135 309.956 16.045C310.136 15.925 310.466 15.865 310.946 15.865H311.846C311.876 15.325 311.876 14.83 311.846 14.38C311.846 13.93 311.846 13.54 311.846 13.21V11.59C311.846 10.93 311.831 10.42 311.801 10.06L311.756 8.17C311.756 6.28 311.936 4.87 312.296 3.94C312.716 2.77 313.451 1.915 314.501 1.375C315.581 0.834999 316.736 0.564999 317.966 0.564999C319.196 0.564999 320.171 0.639999 320.891 0.789998C321.641 0.939998 322.376 1.255 323.096 1.735C323.306 1.855 323.351 2.035 323.231 2.275C323.051 2.575 322.901 2.95 322.781 3.4L322.376 4.705C322.346 4.765 322.286 4.96 322.196 5.29C322.136 5.59 322.046 5.74 321.926 5.74C321.716 5.74 321.386 5.725 320.936 5.695C320.516 5.635 320.036 5.605 319.496 5.605C319.016 5.605 318.671 5.725 318.461 5.965C318.251 6.175 318.131 6.55 318.101 7.09V15.955L319.676 15.91C320.006 15.88 320.471 15.865 321.071 15.865C321.551 15.865 321.866 15.925 322.016 16.045C322.196 16.165 322.286 16.36 322.286 16.63L322.241 17.215C322.241 17.455 322.166 17.62 322.016 17.71C321.896 17.8 321.626 17.845 321.206 17.845C320.666 17.845 320.231 17.83 319.901 17.8L318.101 17.755C318.071 18.235 318.056 18.76 318.056 19.33C318.026 19.54 318.011 19.885 318.011 20.365C318.011 21.025 317.996 21.505 317.966 21.805C317.966 22.045 317.951 22.345 317.921 22.705C317.921 23.065 317.936 23.485 317.966 23.965C317.936 24.595 317.921 25.48 317.921 26.62C317.921 28.6 318.011 30.445 318.191 32.155C318.221 32.455 318.236 32.8 318.236 33.19C318.236 33.43 318.161 33.61 318.011 33.73C317.891 33.85 317.666 33.925 317.336 33.955C316.826 34.015 315.911 34.045 314.591 34.045C314.261 34.075 313.886 34.09 313.466 34.09C313.376 34.12 313.061 34.135 312.521 34.135ZM334.287 34.72C332.637 34.72 331.197 34.18 329.967 33.1C328.767 32.02 327.837 30.505 327.177 28.555C326.547 26.605 326.232 24.355 326.232 21.805C326.232 21.205 326.277 19.51 326.367 16.72C326.427 15.94 326.457 15.415 326.457 15.145L326.412 14.245C326.412 13.675 326.397 12.91 326.367 11.95C326.337 10.96 326.322 9.715 326.322 8.215C326.322 8.005 326.472 7.885 326.772 7.855C327.522 7.795 328.437 7.75 329.517 7.72C330.627 7.69 331.632 7.675 332.532 7.675C332.772 7.675 332.922 7.72 332.982 7.81C333.042 7.87 333.072 7.99 333.072 8.17L333.027 8.935L333.072 9.88C333.072 10.66 333.027 11.47 332.937 12.31C332.847 13.12 332.802 13.63 332.802 13.84C332.802 14.56 332.847 15.445 332.937 16.495C332.967 16.915 332.997 17.395 333.027 17.935C333.057 18.475 333.072 19.045 333.072 19.645L333.027 22.975C333.027 24.835 333.252 26.17 333.702 26.98C334.152 27.76 335.007 28.15 336.267 28.15C336.657 28.15 337.122 28.06 337.662 27.88C338.232 27.67 338.727 27.415 339.147 27.115C339.177 25.765 339.192 24.325 339.192 22.795C339.192 22.075 339.207 21.415 339.237 20.815C339.267 20.215 339.297 19.69 339.327 19.24C339.417 17.98 339.462 16.795 339.462 15.685C339.462 15.235 339.402 14.38 339.282 13.12C339.162 11.68 339.102 10.6 339.102 9.88C339.102 9.76 339.087 9.49 339.057 9.07C339.057 8.62 339.132 8.29 339.282 8.08C339.432 7.84 339.672 7.72 340.002 7.72C340.122 7.72 340.422 7.75 340.902 7.81C341.412 7.87 341.922 7.9 342.432 7.9C343.002 7.9 343.497 7.885 343.917 7.855C344.367 7.825 344.712 7.81 344.952 7.81C345.402 7.81 345.627 7.99 345.627 8.35C345.627 8.38 345.612 8.455 345.582 8.575C345.582 8.665 345.582 8.83 345.582 9.07L345.627 11.905C345.747 15.745 345.807 18.52 345.807 20.23L345.762 22.255L345.807 25.99C345.867 28.09 345.897 29.65 345.897 30.67C345.897 31.72 345.882 32.455 345.852 32.875L345.897 33.505C345.897 33.865 345.777 34.045 345.537 34.045C345.327 34.045 345.027 34.03 344.637 34C344.247 33.97 343.767 33.955 343.197 33.955L341.217 34C340.947 34.03 340.632 34.045 340.272 34.045C340.122 34.045 339.987 34.015 339.867 33.955C339.777 33.865 339.732 33.76 339.732 33.64L339.552 33.19C338.892 33.7 338.187 34.075 337.437 34.315C336.687 34.585 335.637 34.72 334.287 34.72ZM355.88 34.18C354.44 34.18 353.36 34.015 352.64 33.685C351.95 33.325 351.485 32.83 351.245 32.2C351.035 31.54 350.93 30.67 350.93 29.59L350.975 26.71C351.005 26.2 351.02 25.345 351.02 24.145L350.975 18.88C350.945 18.43 350.93 17.95 350.93 17.44V16.09V10.51V8.71C350.93 7.63 350.945 6.79 350.975 6.19L351.02 4.48V2.545C350.99 1.825 351.035 1.345 351.155 1.105C351.305 0.835 351.515 0.7 351.785 0.7C351.935 0.7 352.055 0.714999 352.145 0.744999C352.385 0.774999 352.64 0.789998 352.91 0.789998C353.21 0.759999 353.48 0.744999 353.72 0.744999H354.845C355.625 0.744999 356.165 0.759999 356.465 0.789998C356.795 0.819998 357.02 0.894998 357.14 1.015C357.29 1.135 357.365 1.315 357.365 1.555C357.365 1.645 357.335 1.99 357.275 2.59C357.005 4.78 356.885 7.51 356.915 10.78C356.885 11.32 356.87 11.785 356.87 12.175C356.9 12.565 356.915 12.895 356.915 13.165V14.38C356.945 15.13 356.96 16.18 356.96 17.53L356.915 21.49L357.005 24.37C357.035 25.09 357.065 25.915 357.095 26.845C357.125 27.775 357.14 28.66 357.14 29.5V30.4C357.14 30.79 357.47 30.985 358.13 30.985C358.43 30.985 358.685 30.94 358.895 30.85C359.135 30.76 359.3 30.715 359.39 30.715C359.63 30.715 359.825 30.925 359.975 31.345C360.095 31.795 360.245 32.17 360.425 32.47C360.455 32.5 360.47 32.545 360.47 32.605C360.47 32.725 360.395 32.86 360.245 33.01C359.645 33.55 359.045 33.88 358.445 34C357.845 34.12 356.99 34.18 355.88 34.18ZM384.428 34.99C379.928 34.99 376.928 33.475 375.428 30.445C373.928 27.385 373.178 24.115 373.178 20.635C373.178 17.275 373.688 14.59 374.708 12.58C375.728 10.54 376.958 9.115 378.398 8.305C379.868 7.495 381.338 7.09 382.808 7.09C385.568 7.09 387.638 7.885 389.018 9.475C390.428 11.065 391.328 12.925 391.718 15.055C392.138 17.155 392.348 19.435 392.348 21.895C392.348 22.105 392.198 22.24 391.898 22.3C390.908 22.3 388.628 22.465 385.058 22.795C384.488 22.855 383.798 22.93 382.988 23.02C382.178 23.08 381.278 23.14 380.288 23.2C380.558 26.11 382.133 27.565 385.013 27.565C385.973 27.565 386.708 27.475 387.218 27.295C387.758 27.115 388.613 26.74 389.783 26.17C389.993 26.17 390.173 26.29 390.323 26.53C390.503 26.77 390.743 27.265 391.043 28.015C391.133 28.165 391.238 28.45 391.358 28.87C391.508 29.29 391.643 29.605 391.763 29.815C392.333 31.255 392.603 32.005 392.573 32.065C392.513 32.185 392.348 32.35 392.078 32.56C391.448 33.19 390.428 33.745 389.018 34.225C387.638 34.735 386.108 34.99 384.428 34.99ZM385.508 20.14C385.268 16.72 384.443 15.01 383.033 15.01C382.193 15.01 381.548 15.505 381.098 16.495C380.648 17.455 380.378 18.82 380.288 20.59L385.508 20.14ZM405.417 41.245C404.967 41.275 404.337 41.245 403.527 41.155C402.927 41.095 402.342 41.065 401.772 41.065C401.652 41.065 401.277 41.08 400.647 41.11C400.047 41.17 399.552 41.2 399.162 41.2C398.832 41.2 398.652 41.185 398.622 41.155C398.562 41.125 398.532 41.035 398.532 40.885C398.532 40.705 398.562 40.525 398.622 40.345C398.712 40.165 398.757 40.06 398.757 40.03L399.387 38.275C399.447 38.155 399.507 37.99 399.567 37.78C399.627 37.57 399.717 37.315 399.837 37.015L401.052 32.605L397.542 20.905C397.062 19.105 396.492 16.915 395.832 14.335C395.202 11.725 394.722 9.73 394.392 8.35C394.332 8.17 394.302 8.065 394.302 8.035C394.302 7.855 394.452 7.765 394.752 7.765C394.932 7.765 395.127 7.78 395.337 7.81C395.577 7.84 395.817 7.855 396.057 7.855L397.947 7.81L400.332 7.72C400.812 7.69 401.127 7.75 401.277 7.9C401.427 8.05 401.562 8.335 401.682 8.755C401.682 8.575 402.072 10.315 402.852 13.975L403.932 20.23L404.517 23.65H404.787L405.282 20.77C405.342 20.23 405.507 19.45 405.777 18.43C406.077 17.41 406.257 16.78 406.317 16.54C406.497 15.76 406.752 14.845 407.082 13.795C407.172 13.435 407.367 12.67 407.667 11.5C407.997 10.33 408.192 9.46 408.252 8.89C408.312 8.32 408.417 7.975 408.567 7.855C408.747 7.705 408.957 7.645 409.197 7.675C409.437 7.675 409.602 7.675 409.692 7.675C412.302 7.675 413.952 7.705 414.642 7.765C415.122 7.825 415.362 7.96 415.362 8.17C415.362 8.23 415.332 8.41 415.272 8.71C415.182 8.89 415.047 9.19 414.867 9.61C414.717 10.03 414.597 10.375 414.507 10.645C414.207 11.545 414.057 11.995 414.057 11.995C413.007 15.985 412.122 18.91 411.402 20.77C411.102 21.58 410.772 22.75 410.412 24.28C410.052 25.78 409.827 26.74 409.737 27.16C409.557 28.06 409.347 28.93 409.107 29.77C408.837 30.91 408.492 32.245 408.072 33.775L407.082 37.555C406.992 38.035 406.812 38.68 406.542 39.49C406.302 40.3 406.167 40.75 406.137 40.84C406.107 41.11 405.867 41.245 405.417 41.245ZM428.08 34.495C423.79 34.495 420.85 33.205 419.26 30.625C417.67 28.045 416.875 24.58 416.875 20.23C416.875 17.98 417.34 15.85 418.27 13.84C419.23 11.8 420.52 10.165 422.14 8.935C423.79 7.705 425.605 7.09 427.585 7.09C429.985 7.09 431.92 7.9 433.39 9.52C434.86 11.14 435.895 13.195 436.495 15.685C437.125 18.145 437.44 20.74 437.44 23.47C437.47 23.68 437.395 23.815 437.215 23.875C437.035 23.935 436.675 23.965 436.135 23.965C435.175 23.905 434.395 23.875 433.795 23.875C432.805 23.875 431.5 23.905 429.88 23.965L428.71 24.01H427.18C425.05 24.01 423.67 23.995 423.04 23.965C421.6 23.965 420.55 23.95 419.89 23.92C420.07 26.62 420.805 28.66 422.095 30.04C423.415 31.39 425.35 32.065 427.9 32.065C429.25 32.065 430.585 31.705 431.905 30.985C433.225 30.235 434.17 29.305 434.74 28.195C434.77 28.165 434.815 28.15 434.875 28.15C435.025 28.15 435.205 28.255 435.415 28.465C435.655 28.645 435.835 28.78 435.955 28.87C436.285 29.08 436.525 29.245 436.675 29.365C436.825 29.485 436.915 29.65 436.945 29.86C436.105 31.09 434.86 32.17 433.21 33.1C431.59 34.03 429.88 34.495 428.08 34.495ZM429.25 21.175C430.06 21.175 430.855 21.16 431.635 21.13C432.445 21.07 433.435 20.98 434.605 20.86C434.275 17.8 433.57 15.16 432.49 12.94C431.44 10.72 430.075 9.61 428.395 9.61C426.955 9.61 425.605 10.12 424.345 11.14C423.085 12.13 422.05 13.495 421.24 15.235C420.43 16.975 419.965 18.925 419.845 21.085C420.055 21.085 420.34 21.1 420.7 21.13C421.06 21.13 421.57 21.115 422.23 21.085L429.25 21.175ZM448.424 34.405C447.434 34.405 446.429 34.225 445.409 33.865C444.389 33.505 443.489 33.115 442.709 32.695C441.959 32.245 441.509 31.945 441.359 31.795C441.089 31.555 441.029 31.33 441.179 31.12C441.299 30.88 441.509 30.52 441.809 30.04C442.109 29.56 442.319 29.32 442.439 29.32H442.529C442.589 29.32 442.649 29.335 442.709 29.365C442.769 29.395 442.844 29.47 442.934 29.59C443.024 29.68 443.129 29.785 443.249 29.905C443.579 30.235 444.269 30.595 445.319 30.985C446.369 31.375 447.224 31.57 447.884 31.57C448.034 31.57 448.559 31.585 449.459 31.615C450.389 31.645 451.169 31.36 451.799 30.76C452.459 30.13 452.789 29.17 452.789 27.88C452.789 27.04 452.429 26.32 451.709 25.72C451.019 25.12 449.954 24.4 448.514 23.56L446.849 22.525C445.109 21.595 443.729 20.575 442.709 19.465C441.719 18.325 441.224 16.855 441.224 15.055C441.224 12.655 442.049 10.78 443.699 9.43C445.349 8.08 447.434 7.405 449.954 7.405C452.144 7.405 453.764 7.84 454.814 8.71C455.894 9.55 456.464 10 456.524 10.06C456.764 10.21 456.884 10.39 456.884 10.6C456.884 10.69 456.839 10.78 456.749 10.87C456.689 10.96 456.479 11.275 456.119 11.815C455.789 12.325 455.549 12.58 455.399 12.58C455.279 12.58 455.114 12.505 454.904 12.355L454.634 12.13C454.574 12.07 454.109 11.71 453.239 11.05C452.369 10.39 451.319 10.06 450.089 10.06C448.289 10.06 446.954 10.375 446.084 11.005C445.214 11.635 444.779 12.535 444.779 13.705C444.779 14.665 445.154 15.49 445.904 16.18C446.654 16.87 447.629 17.5 448.829 18.07L449.999 18.565C451.259 19.045 452.354 19.57 453.284 20.14C454.244 20.71 455.084 21.565 455.804 22.705C456.554 23.815 456.929 25.24 456.929 26.98C456.929 29.86 456.074 31.825 454.364 32.875C452.684 33.895 450.704 34.405 448.424 34.405Z" fill="white"/>
</g>
<defs>
<filter id="filter0_d_1_2" x="0.665001" y="0.564995" width="460.264" height="48.725" filterUnits="userSpaceOnUse" color-interpolation-filters="sRGB">
<feFlood flood-opacity="0" result="BackgroundImageFix"/>
<feColorMatrix in="SourceAlpha" type="matrix" values="0 0 0 0 0 0 0 0 0 0 0 0 0 0 0 0 0 0 127 0" result="hardAlpha"/>
<feOffset dy="4"/>
<feGaussianBlur stdDeviation="2"/>
<feComposite in2="hardAlpha" operator="out"/>
<feColorMatrix type="matrix" values="0 0 0 0 0 0 0 0 0 0 0 0 0 0 0 0 0 0 0.25 0"/>
<feBlend mode="normal" in2="BackgroundImageFix" result="effect1_dropShadow_1_2"/>
<feBlend mode="normal" in="SourceGraphic" in2="effect1_dropShadow_1_2" result="shape"/>
</filter>
</defs>
</svg>
